PathFileType	4	(X/Y/Z)	C:/Users/beibeiliu/ov580/test_trc/capture2\sequence.20_training_dense_right.trc
DataRate	CameraRate	NumFrames	NumMarkers	Units	OrigDataRate	OrigDataStartFrame	OrigNumFrames
120	120	10	19	mm	120	169	337
Frame#	Time	ThumbCMC			ThumbMCP			ThumbIP			ThumbTip			IndexMCP			IndexPIP			IndexTip			MiddleMCP			MiddlePIP			MiddleTip			RingMCP			RingPIP			RingTip			PinkyMCP			PinkyPIP			PinkyTip			BackHand1			BackHand2			BackHand3	
		X0	Y0	Z0	X1	Y1	Z1	X2	Y2	Z2	X3	Y3	Z3	X4	Y4	Z4	X5	Y5	Z5	X6	Y6	Z6	X7	Y7	Z7	X8	Y8	Z8	X9	Y9	Z9	X10	Y10	Z10	X11	Y11	Z11	X12	Y12	Z12	X13	Y13	Z13	X14	Y14	Z14	X15	Y15	Z15	X16	Y16	Z16	X17	Y17	Z17	X18	Y18	Z18	
168	1.4	200.739	93.8408	23.3325	202.277	92.218	-10.5116	201.203	75.1377	-32.2491	191.012	51.6616	-35.2189	240.124	55.5474	-26.8335	249.5	43.909	-51.4644	258.541	33.6316	-69.6733	233.522	35.5301	-31.3897	242.231	27.7105	-52.9358	253.613	14.5928	-75.5471	215.631	18.9317	-31.2533	228.256	9.23843	-53.8218	241.226	2.72317	-73.6338	196.907	10.8195	-26.5935	206.797	7.29826	-44.5115	217.221	-6.88194	-59.6242	200.417	28.2193	15.8996	192.36	33.8895	39.6587	213.163	55.3943	30.6832	
169	1.40833	202.161	85.3898	23.6246	205.428	87.4603	-11.5529	202.299	69.7709	-33.1486	189.222	43.6277	-40.75	237.042	40.2163	-30.9516	245.427	35.3724	-49.2857	253.732	24.0032	-68.7218	229.488	25.7701	-31.6492	239.622	16.086	-55.8146	249.105	2.88528	-76.8899	211.09	13.8147	-30.8103	221.956	2.56829	-53.2227	233.796	-6.78727	-73.9951	191.246	5.82309	-26.352	196.528	-0.12509	-41.6568	212.054	-12.1515	-62.4726	196.932	20.2699	14.9616	187.225	32.5404	43.7686	211.405	49.4312	30.4891	
170	1.41667	203.209	76.3396	20.6492	205.803	81.4612	-12.6343	201.251	59.9611	-36.7868	186.304	41.0453	-36.7405	232.632	33.4493	-27.4209	239.536	24.4754	-48.149	248.349	9.09459	-72.84	221.894	14.7358	-32.5096	233.34	6.29354	-57.0008	240.673	-8.79573	-78.6925	206.685	8.34603	-30.3559	212.278	-2.78628	-49.2749	223.368	-16.9444	-72.4218	184.764	2.93555	-23.711	192.81	-6.17393	-44.3908	201.109	-21.6069	-63.3777	190.609	16.3205	14.1271	184.099	25.8659	43.0812	207.655	41.8399	31.0658	
171	1.425	204.759	73.3095	20.5235	204.43	74.0355	-9.3292	198.585	53.1168	-32.4395	184.206	34.2124	-36.6635	231.517	25.4584	-27.8919	237.37	14.8344	-49.1294	243.565	1.77101	-70.7919	220.341	7.84912	-34.4078	226.036	-3.04864	-55.9562	235.824	-16.943	-76.8608	199.404	0.664424	-28.6784	210.396	-8.92603	-51.6419	218.221	-23.9769	-73.2069	181.791	-2.89733	-23.5171	185.873	-10.3414	-39.7586	196.933	-25.682	-62.1358	188.219	13.7758	16.8015	179.676	20.4449	41.594	209.78	37.9441	32.192	
172	1.43333	201.746	67.9361	21.7907	203.526	70.1048	-9.51804	199.684	51.3785	-35.6771	182.631	28.3448	-36.2054	230.875	23.7547	-25.1532	239.121	12.979	-49.4197	243.574	-2.81343	-70.5466	220.644	7.27751	-32.2855	228.644	-3.20915	-55.6494	232.591	-18.3449	-75.4604	200.788	-1.74298	-29.9157	205.513	-12.0363	-48.0831	217.591	-21.7125	-71.2086	174.56	-5.05143	-20.524	183.417	-15.4848	-41.5238	195.244	-25.1452	-61.6842	185.847	9.92026	16.0837	178.476	18.5824	42.1133	204.875	31.3641	32.785	
173	1.44167	198.538	66.938	25.5182	201.4	69.2055	-6.58611	200.229	51.5124	-33.3441	182.82	27.2414	-37.1619	232.617	22.7668	-25.3325	237.489	12.1716	-45.2926	241.103	-3.12487	-66.9715	218.73	5.13013	-30.1726	228.705	-2.65878	-51.4707	236.314	-17.3337	-75.0997	200.267	-0.873733	-27.092	209.278	-9.67568	-48.185	219.05	-22.2214	-71.9602	175.564	-4.46914	-20.1111	186.114	-11.6601	-38.1711	198.099	-25.5824	-57.4407	183.758	11.3238	18.6775	175.878	16.038	45.8625	207.426	33.6186	33.6083	
174	1.45	196.033	71.2669	29.9517	200.085	70.687	-5.36414	199.011	57.224	-27.5096	185.761	30.8855	-36.4374	234.544	28.276	-20.7248	242.859	20.5222	-41.3501	249.145	4.73218	-63.9233	221.068	10.5789	-25.2089	230.833	4.11663	-46.2168	246.25	-7.36316	-69.1752	204.145	2.7405	-24.516	215.649	-7.38532	-48.894	224.916	-17.6749	-69.1869	182.224	-0.954238	-19.5927	191.46	-8.81059	-37.5435	206.013	-19.5651	-57.5925	187.003	10.5463	20.5828	172.921	16.0504	46.555	203.561	35.4355	37.844	
175	1.45833	192.2	75.7476	32.6898	197.322	77.9983	-1.49855	201.162	63.288	-26.3652	189.246	39.9094	-29.4064	235.412	39.9312	-14.1133	247.636	32.7697	-35.4571	259.602	22.2765	-57.7804	228.981	23.1588	-19.9827	243.986	14.7783	-43.7069	252.402	3.97603	-62.9682	212.144	10.4396	-23.1654	224.968	4.50557	-43.8156	235.148	-1.54301	-62.9954	191.756	3.03056	-19.3076	203.827	-0.641325	-35.9381	215.867	-13.2491	-52.0273	187.005	13.8933	23.5514	175.061	21.9346	48.0134	204.299	38.7508	40.545	
176	1.46667	186.85	80.4288	36.4813	194.739	85.3927	3.31412	202.682	71.6113	-23.4768	192.727	45.3754	-25.2943	238.564	50.4659	-10.015	254.25	49.2692	-28.9627	265.658	41.4991	-47.9864	235.634	32.9373	-17.4729	250.707	29.6525	-36.9351	264.813	20.337	-57.225	222.51	23.3409	-18.8606	233.259	19.2688	-35.8878	249.438	11.9033	-60.3654	199.065	11.9674	-15.3039	210.225	4.63505	-32.4586	226.548	-2.28135	-48.9121	193.132	21.0451	20.2914	176.706	23.3245	49.2278	202.136	47.6408	42.68	
177	1.475	180.908	87.9401	39.8715	189.818	95.6599	5.48628	201.42	78.086	-17.2556	199.352	54.4268	-28.5888	242.713	68.8957	-2.54023	256.775	63.7266	-24.7636	270.231	59.6224	-41.6843	237.156	47.154	-9.37565	258.454	48.6466	-30.2691	277.374	41.4616	-50.5397	225.105	31.2543	-14.8102	241.542	29.9561	-32.2056	259.625	30.1535	-52.4823	204.021	19.5943	-13.4659	221.385	19.488	-26.2083	242.43	17.2544	-45.0954	195.183	29.1826	27.2037	178.186	25.9838	49.6864	201.511	55.4727	49.0394	
